<?xml version="1.0" encoding="UTF-8" standalone="no"?>
<!-- Created with Inkscape (http://www.inkscape.org/) -->
<svg id="svg2" xmlns:rdf="http://www.w3.org/1999/02/22-rdf-syntax-ns#" xmlns="http://www.w3.org/2000/svg" xmlns:osb="http://www.openswatchbook.org/uri/2009/osb" height="169.33mm" width="169.33mm" version="1.1" xmlns:cc="http://creativecommons.org/ns#" viewBox="0 0 599.99998 600.00003" xmlns:dc="http://purl.org/dc/elements/1.1/">
 <metadata id="metadata7">
  <rdf:RDF>
   <cc:Work rdf:about="">
    <dc:format>image/svg+xml</dc:format>
    <dc:type rdf:resource="http://purl.org/dc/dcmitype/StillImage"/>
    <dc:title/>
   </cc:Work>
  </rdf:RDF>
 </metadata>
 <g id="layer1" transform="translate(-1040.9 -415.65)">
  <path id="path4208" d="m1356.8 610.82v209.64h209.64v-209.64h-209.64zm31.955 37.166h41.881l31.649 93.049h0.3779l29.944-93.049h41.882v135.31h-27.858v-95.892h-0.3795l-33.165 95.892h-22.93l-33.163-94.945h-0.3794v94.945h-27.858v-135.31zm-186.41 83.006 17.624-49.652h0.379l17.056 49.652h-35.06zm2.8427-83.006-51.168 135.31h29.943l10.613-30.132h50.599l10.234 30.132h30.89l-50.599-135.31h-30.511zm-89.851-37.167h209.64v209.64h-209.64zm-74.445-195.18h600v600h-600z" fill-rule="evenodd"/>
 </g>
</svg>
