<?xml version="1.0" encoding="UTF-8" standalone="no"?>
<!-- Created with Inkscape (http://www.inkscape.org/) -->
<svg id="svg2" xmlns:rdf="http://www.w3.org/1999/02/22-rdf-syntax-ns#" xmlns="http://www.w3.org/2000/svg" xmlns:osb="http://www.openswatchbook.org/uri/2009/osb" height="169.33mm" width="169.33mm" version="1.1" xmlns:cc="http://creativecommons.org/ns#" viewBox="0 0 599.99998 599.99998" xmlns:dc="http://purl.org/dc/elements/1.1/">
 <metadata id="metadata7">
  <rdf:RDF>
   <cc:Work rdf:about="">
    <dc:format>image/svg+xml</dc:format>
    <dc:type rdf:resource="http://purl.org/dc/dcmitype/StillImage"/>
    <dc:title/>
   </cc:Work>
  </rdf:RDF>
 </metadata>
 <g id="layer1" transform="translate(-2837.5 -2965.3)">
  <g font-size="40px" font-family="Sans" fill="#000000">
   <text id="text4244" style="word-spacing:0px;letter-spacing:0px" xml:space="preserve" y="826.08801" x="2901.9663" line-height="125%"><tspan id="tspan4246" x="2901.9663" y="826.08801"/></text>
   <text id="text4312" style="word-spacing:0px;letter-spacing:0px" xml:space="preserve" y="1572.7928" x="3297.946" line-height="125%"><tspan id="tspan4314" x="3297.946" y="1572.7928"/></text>
   <flowRoot id="flowRoot4605" xml:space="preserve" style="word-spacing:0px;letter-spacing:0px" line-height="125%"><flowRegion id="flowRegion4607"><rect id="rect4609" y="2104.5" width="712.76" x="3801.4" height="707.11"/></flowRegion><flowPara id="flowPara4611"/></flowRoot>
  </g>
  <g id="g4812" fill-rule="evenodd" transform="matrix(.74713 0 0 .74713 1500.3 2062.6)">
   <g id="g4814" transform="translate(-4.0129 480)"></g>
   <g id="g4818" transform="translate(4.013 480)">
    <g id="g4820" fill-rule="evenodd" fill="#fff">
     <path id="path4822" d="m2447.7 1037.1v185.26h-21.977v-136.13q0-2.7149 0.1292-5.8175 0.2586-3.1027 0.5171-6.3347l-63.605 115.83q-2.9734 5.8176-9.0495 5.8176h-3.6198q-6.0761 0-9.0495-5.8176l-64.898-116.35q0.7756 6.8518 0.7756 12.669v136.13h-21.977v-185.26h18.487q3.3613 0 5.1712 0.6464t3.4905 3.6198l63.993 114.02q1.5513 3.1027 2.9734 6.464 1.5513 3.3612 2.8441 6.8517 1.2928-3.4905 2.7148-6.8517 1.4221-3.4906 3.1027-6.5933l62.83-113.89q1.5513-2.9734 3.3612-3.6198 1.9392-0.6464 5.3005-0.6464h18.487zm-239.39-50.385h286.03v286.03h-286.03zm-150.5 166.87-29.088-75.37q-1.2928-3.3612-2.7149-7.7567-1.422-4.5248-2.7148-9.5666-2.7149 10.472-5.559 17.453l-29.088 75.24h69.164zm52.229 68.776h-19.392q-3.3613 0-5.4297-1.6806-2.0685-1.6806-3.1027-4.2662l-17.323-44.73h-83.126l-17.323 44.73q-0.7757 2.327-2.9734 4.1369-2.1978 1.8099-5.4298 1.8099h-19.392l74.077-185.26h25.339l74.077 185.26zm-229.76-235.64h286.03v286.03h-286.03zm-94.513-258.53h803.08v803.08h-803.08z" fill-rule="evenodd" fill="#000"/>
    </g>
   </g>
  </g>
 </g>
</svg>
